<svg width="200" height="200" viewBox="0 0 197.72 155.6" xmlns="http://www.w3.org/2000/svg"><title>Logo</title><path d="M82.83,135.63l-31.54,6.89c-19.19,4.79-31.45,7.19-19,10.91,3.39,1,5.4,2.12,11.84,2.1a24.53,24.53,0,0,0,5.22-.17c12.92-7.12,86.17-22.9,128.32-27.7C173.54,119.48,106.83,130.32,82.83,135.63Z" fill="#FFF" /><path d="M197.22,111.7A5.61,5.61,0,0,1,195.3,116a7,7,0,0,1-9.33,0A5.6,5.6,0,0,1,184,111.7a6,6,0,0,1,1.92-4.46,6.8,6.8,0,0,1,9.33,0A6,6,0,0,1,197.22,111.7Z" fill="#FFF" /><path d="M69.64,18q11.74,15.33,11.74,39a74.34,74.34,0,0,1-.69,10.22Q98,77.65,98,90.09q0,11.88-15.2,22.38A75.23,75.23,0,0,1,51,124.9a111.93,111.93,0,0,1-16,1.24q-15.2,0-24-5.11-8.29-5-8.29-12.71,0-6.49,5.94-13,4.83-5.25,17.27-10.64,13.68-5.8,24.73-5.8a24.16,24.16,0,0,1,11.88,2.62c.64.37,1,.69,1,1q0,1.11-2.9.41a32.57,32.57,0,0,0-6.91-.69q-10.91,0-23.76,5.25-12,5-16.72,10.5t-4.7,9.95q0,5.67,6.91,8.84t18.93,3.18a114,114,0,0,0,17-1.38q17.41-2.77,27.63-10.91,9.53-7.74,9.53-17.55,0-9.12-8.7-17-3.59,17.69-13.68,29a40.28,40.28,0,0,1-27.77,13.82.74.74,0,0,1-1-.69.89.89,0,0,1,.83-1,38,38,0,0,0,27.22-13.82Q75,89,77.65,71.3a66.87,66.87,0,0,0-6.77-4.56q-10.64-5.8-15.61-10.5Q47.4,48.78,47.4,39.8q0-12.29,15.89-23.35Q52.23,5,37,5A40.46,40.46,0,0,0,19.49,9.13,23.5,23.5,0,0,0,8.65,19.29,29,29,0,0,0,4.57,33.86a19,19,0,0,0,2.76,10.5q5.25,8,15.47,8,9.39,0,14.09-7a.8.8,0,0,1,1.52.41q0,3.18-6.35,5.94A25.09,25.09,0,0,1,22.53,54Q11.2,54,5.4,45.33A20.6,20.6,0,0,1,2.5,34.27,30.68,30.68,0,0,1,7,18.59a26,26,0,0,1,11.81-11A45.87,45.87,0,0,1,38.56,3.05q16.85,0,28,11.33Q83.18,4,96.86,2.64,98.51,2.5,100,2.5q14,0,15.75,10.08a4.2,4.2,0,0,1,0,1.52q-.14,1.11-.14,1.24c0,.28.14.32.41.14a32.22,32.22,0,0,1,3.18-1.93q2.9-.28,2.9,2.07a9.63,9.63,0,0,1-2.35,5.8q-10.23,11.05-12.57,11.05c-.46,0-.69-.28-.69-.83q0-2.07,4.28-10.36a13.36,13.36,0,0,0,1.66-5.8q0-6.91-11.6-6.91a41.72,41.72,0,0,0-4.56.28A58.72,58.72,0,0,0,69.64,18Zm8.7,47.8q.14-3,.14-5.94,0-23.9-12-39.65-12.16,9.26-12.16,20,0,13.54,19.62,23.21Q76.27,64.53,78.34,65.77Z" fill="#FFF" /><path d="M174.22,95.89q-14.78,15.33-24,15.33-3.87,0-5.94-6.35-1.24-5-2.62-9.95-1.52-3.73-4.28-3.73-2.35,0-5.66,2.62a52.57,52.57,0,0,0-9.26,9.95l-4.7,6.35a8.06,8.06,0,0,1-4.14,1.66q-3.18,0-3.18-5.11a14.78,14.78,0,0,1,.69-4.42q3.73-12,13.82-34.68,12.16-27.9,20.72-40.34Q152.53,17,160.54,17q5.94,0,5.94,7A22.87,22.87,0,0,1,165.24,31q-6.36,19.89-36.89,46a107.8,107.8,0,0,0-10.22,26.39l2.62-2.62q3.18-3.18,10.08-9.81,8.7-7.6,14.09-7.6,3.32,0,4.28,5.8.55,5.39,1.11,10.78,1,5.8,4.42,5.8t9.53-4.28A50.83,50.83,0,0,0,172,94.65a3.34,3.34,0,0,1,2.21-1.38.73.73,0,0,1,.83.83A2.51,2.51,0,0,1,174.22,95.89ZM160.68,30.41a18.21,18.21,0,0,0,1.66-6.63q0-3.45-2.35-3.45-3.87,0-8.57,8.15A382,382,0,0,0,130,72.54a182.76,182.76,0,0,0,17.27-19.76Q157.09,39.94,160.68,30.41Z" fill="#FFF" /></svg>